<svg xmlns="http://www.w3.org/2000/svg" viewBox="0 0 500 455.12"><style>.apluslogo-st1{fill:#007438}</style><path d="M231.433 213.894h27.807v10.407h-17.198v10.147h17.198v10.256h-17.198v25.225h-10.61v-56.035zm76.888 38.294h-33.396c.482 2.947 1.768 5.292 3.867 7.03 2.094 1.743 4.766 2.61 8.012 2.61 3.886 0 7.227-1.357 10.02-4.076l8.758 4.114c-2.18 3.1-4.799 5.389-7.846 6.876-3.047 1.487-6.665 2.23-10.861 2.23-6.5 0-11.796-2.05-15.883-6.149-4.089-4.097-6.135-9.23-6.135-15.395 0-6.317 2.04-11.563 6.116-15.737 4.075-4.175 9.187-6.262 15.329-6.262 6.528 0 11.836 2.085 15.927 6.258 4.085 4.17 6.13 9.677 6.13 16.52l-.038 1.981zm-10.41-8.176c-.69-2.309-2.04-4.181-4.063-5.622-2.017-1.445-4.36-2.171-7.028-2.171-2.898 0-5.438.811-7.624 2.436-1.372 1.009-2.639 2.799-3.809 5.356h22.524zm48.653-31.548h10.409v57.465h-10.409v-4.397c-2.032 1.931-4.069 3.31-6.108 4.164-2.045.852-4.259 1.276-6.643 1.276-5.356 0-9.988-2.076-13.894-6.224-3.909-4.153-5.863-9.306-5.863-15.475 0-6.39 1.887-11.634 5.669-15.717 3.784-4.084 8.372-6.127 13.782-6.127 2.49 0 4.821.471 7.003 1.409 2.188.941 4.203 2.351 6.055 4.235v-20.609zm-10.93 24.567c-3.22 0-5.893 1.134-8.014 3.406-2.128 2.263-3.194 5.174-3.194 8.727 0 3.574 1.085 6.513 3.248 8.819 2.167 2.301 4.831 3.461 7.999 3.461 3.262 0 5.975-1.137 8.128-3.403 2.146-2.273 3.226-5.244 3.226-8.918 0-3.602-1.08-6.515-3.226-8.75-2.153-2.23-4.876-3.342-8.167-3.342zm72.564 15.157h-33.401c.483 2.947 1.769 5.292 3.867 7.03 2.097 1.743 4.767 2.61 8.019 2.61 3.88 0 7.223-1.357 10.017-4.076l8.753 4.114c-2.179 3.1-4.794 5.389-7.845 6.876-3.046 1.487-6.666 2.23-10.862 2.23-6.501 0-11.798-2.05-15.881-6.149-4.091-4.097-6.138-9.23-6.138-15.395 0-6.317 2.043-11.563 6.119-15.737 4.071-4.175 9.184-6.262 15.332-6.262 6.522 0 11.827 2.085 15.92 6.258 4.093 4.17 6.131 9.677 6.131 16.52l-.031 1.981zm-10.417-8.176c-.689-2.309-2.036-4.181-4.053-5.622-2.023-1.445-4.369-2.171-7.033-2.171-2.9 0-5.44.811-7.62 2.436-1.38 1.009-2.643 2.799-3.816 5.356h22.522zm15.602-15.546h8.914v5.243c.96-2.058 2.244-3.619 3.849-4.682 1.603-1.066 3.35-1.599 5.263-1.599 1.346 0 2.756.355 4.231 1.068l-3.233 8.947c-1.223-.608-2.23-.915-3.014-.915-1.604 0-2.951.991-4.054 2.971-1.108 1.977-1.656 5.861-1.656 11.653l.033 2.015v16.759h-10.335v-41.46zm57.223 0h10.415v41.463h-10.415v-4.397c-2.03 1.931-4.065 3.31-6.11 4.164-2.041.852-4.255 1.276-6.643 1.276-5.358 0-9.984-2.076-13.892-6.224-3.911-4.153-5.862-9.306-5.862-15.475 0-6.39 1.89-11.634 5.667-15.717 3.784-4.084 8.379-6.127 13.785-6.127 2.482 0 4.816.471 7.006 1.409 2.181.934 4.198 2.344 6.049 4.215v-4.587zm-10.928 8.565c-3.225 0-5.888 1.134-8.019 3.406-2.127 2.263-3.188 5.174-3.188 8.727 0 3.574 1.083 6.513 3.242 8.819 2.17 2.301 4.834 3.461 8.002 3.461 3.262 0 5.974-1.137 8.125-3.403 2.148-2.273 3.231-5.244 3.231-8.918 0-3.602-1.083-6.515-3.231-8.75-2.151-2.23-4.876-3.342-8.162-3.342zm29.902-24.567H500v57.465h-10.42v-57.465zm-206.776 76.302l-7.468 7.111c-5.078-5.356-10.79-8.032-17.143-8.032-5.358 0-9.872 1.824-13.539 5.482-3.67 3.655-5.508 8.16-5.508 13.513 0 3.729.812 7.039 2.437 9.937 1.626 2.891 3.927 5.163 6.899 6.815 2.972 1.649 6.274 2.471 9.904 2.471 3.096 0 5.931-.577 8.496-1.728 2.562-1.158 5.379-3.256 8.453-6.3l7.241 7.543c-4.144 4.036-8.056 6.84-11.743 8.403-3.687 1.561-7.896 2.341-12.623 2.341-8.72 0-15.857-2.76-21.41-8.282-5.557-5.516-8.333-12.592-8.333-21.219 0-5.582 1.262-10.542 3.791-14.883 2.529-4.341 6.154-7.827 10.869-10.47 4.718-2.64 9.796-3.959 15.238-3.959 4.627 0 9.082.977 13.362 2.929 4.287 1.948 7.979 4.726 11.077 8.328zm4.938 4.708h8.912v5.24c.965-2.056 2.244-3.615 3.848-4.686a9.335 9.335 0 015.263-1.592c1.347 0 2.759.357 4.23 1.065l-3.235 8.95c-1.219-.611-2.22-.914-3.008-.914-1.598 0-2.95.989-4.053 2.971-1.107 1.975-1.656 5.864-1.656 11.652l.036 2.015v16.76h-10.337v-41.461zm66.372 23.721h-33.4c.485 2.946 1.772 5.29 3.866 7.03 2.094 1.736 4.769 2.611 8.019 2.611 3.881 0 7.223-1.357 10.018-4.082l8.76 4.12c-2.188 3.097-4.801 5.391-7.85 6.873-3.046 1.486-6.666 2.23-10.857 2.23-6.504 0-11.796-2.05-15.888-6.147-4.089-4.097-6.131-9.229-6.131-15.398 0-6.314 2.038-11.564 6.112-15.734 4.075-4.176 9.185-6.264 15.335-6.264 6.528 0 11.835 2.086 15.919 6.258 4.09 4.169 6.135 9.679 6.135 16.523l-.038 1.98zm-10.415-8.175c-.684-2.304-2.038-4.181-4.058-5.625-2.02-1.445-4.365-2.166-7.029-2.166-2.9 0-5.439.811-7.624 2.433-1.374 1.011-2.642 2.799-3.812 5.358h22.523zm47.911-31.548h10.408v57.463H391.61v-4.395c-2.037 1.927-4.064 3.315-6.107 4.163-2.047.85-4.261 1.274-6.643 1.274-5.361 0-9.986-2.076-13.898-6.224-3.907-4.152-5.861-9.304-5.861-15.477 0-6.388 1.882-11.628 5.666-15.714 3.784-4.083 8.381-6.128 13.783-6.128 2.487 0 4.823.471 7.001 1.41 2.189.94 4.207 2.351 6.059 4.232v-20.604zm-10.931 24.568c-3.221 0-5.886 1.133-8.013 3.402-2.126 2.267-3.198 5.176-3.198 8.723 0 3.578 1.091 6.52 3.25 8.826 2.171 2.304 4.836 3.462 8.001 3.462 3.261 0 5.974-1.138 8.128-3.407 2.147-2.265 3.225-5.239 3.225-8.914 0-3.6-1.079-6.517-3.225-8.747-2.155-2.233-4.878-3.345-8.168-3.345zm36.311-25.61c1.831 0 3.397.662 4.711 1.976 1.307 1.317 1.957 2.917 1.957 4.796 0 1.85-.649 3.422-1.944 4.728-1.294 1.307-2.839 1.961-4.648 1.961-1.852 0-3.437-.667-4.75-1.995-1.307-1.331-1.957-2.947-1.957-4.848 0-1.827.648-3.383 1.943-4.682 1.296-1.29 2.86-1.936 4.688-1.936zm-5.209 17.044h10.416v41.461h-10.416v-41.461zm21.625-15.272h10.416v15.272h6.173v8.948h-6.173v32.513h-10.416v-32.513h-5.319v-8.948h5.319v-15.272zm-202.51 65.704h10.72v36.212c0 3.115.275 5.323.819 6.614.545 1.296 1.443 2.332 2.697 3.106 1.255.772 2.773 1.158 4.545 1.158 1.88 0 3.495-.43 4.853-1.293 1.354-.862 2.292-1.966 2.809-3.293.523-1.333.782-3.874.782-7.627v-34.878h10.724v33.396c0 5.638-.319 9.545-.955 11.729-.632 2.184-1.85 4.291-3.64 6.32-1.792 2.034-3.85 3.538-6.191 4.514-2.335.976-5.052 1.467-8.15 1.467-4.067 0-7.605-.934-10.611-2.804-3.011-1.859-5.162-4.196-6.459-7.002-1.294-2.808-1.943-7.55-1.943-14.224v-33.395zm48.386 14.576h10.412v4.266c2.358-1.986 4.497-3.365 6.416-4.141a15.572 15.572 0 015.881-1.164c4.109 0 7.599 1.436 10.465 4.297 2.412 2.438 3.618 6.05 3.618 10.821v27.383h-10.295v-18.141c0-4.946-.228-8.228-.669-9.852-.443-1.622-1.213-2.859-2.318-3.709-1.105-.848-2.465-1.276-4.089-1.276-2.1 0-3.906.708-5.417 2.114-1.505 1.409-2.552 3.354-3.138 5.836-.3 1.294-.453 4.091-.453 8.407v16.621h-10.412v-41.462zm51.179-17.043c1.831 0 3.398.66 4.708 1.977 1.307 1.316 1.966 2.916 1.966 4.79 0 1.854-.65 3.427-1.944 4.733-1.296 1.306-2.848 1.962-4.656 1.962-1.854 0-3.438-.667-4.743-1.997-1.308-1.333-1.964-2.948-1.964-4.851 0-1.822.646-3.383 1.944-4.68 1.295-1.287 2.857-1.934 4.689-1.934zm-5.206 17.043h10.409v41.462h-10.409v-41.462zm38.883-1.039c3.91 0 7.591.976 11.029 2.933 3.441 1.951 6.125 4.602 8.06 7.954 1.925 3.347 2.893 6.965 2.893 10.843 0 3.907-.971 7.568-2.921 10.963-1.938 3.4-4.589 6.057-7.94 7.969-3.353 1.92-7.046 2.881-11.079 2.881-5.946 0-11.021-2.113-15.22-6.338-4.205-4.227-6.303-9.358-6.303-15.396 0-6.469 2.374-11.866 7.119-16.175 4.166-3.755 8.953-5.634 14.362-5.634zm.17 9.797c-3.222 0-5.916 1.124-8.062 3.365-2.144 2.241-3.213 5.113-3.213 8.609 0 3.598 1.053 6.511 3.177 8.741 2.119 2.234 4.813 3.35 8.057 3.35 3.255 0 5.962-1.129 8.122-3.385 2.16-2.258 3.241-5.156 3.241-8.706 0-3.549-1.061-6.43-3.187-8.648-2.119-2.223-4.829-3.326-8.135-3.326zm28.083-8.758h10.407v4.266c2.365-1.986 4.503-3.365 6.421-4.141a15.55 15.55 0 015.879-1.164c4.114 0 7.6 1.436 10.471 4.297 2.407 2.438 3.61 6.05 3.61 10.821v27.383h-10.296v-18.141c0-4.946-.222-8.228-.666-9.852-.441-1.622-1.214-2.859-2.314-3.709-1.112-.848-2.468-1.276-4.094-1.276-2.099 0-3.907.708-5.411 2.114-1.508 1.409-2.56 3.354-3.144 5.836-.3 1.294-.455 4.091-.455 8.407v16.621h-10.407v-41.462z" fill="#007438"/><path class="apluslogo-st1" d="M284.115 123.235l-70.71 44.259 23.113-118.84s4.766-13.984-3.871-17.688c0 0-2.013-3.701-7.357-7.406 0 0-4.693-4.426-6.256-1.594l-5.198-5.204s-2.973-8.916-11.147-.742c0 0-16.704 6.688-80.605 118.887 0 0-79.901 144.908-114.827 257.112 0 0-9.66 25.266-6.688 49.788 0 0 2.17 16.161 5.459 12.871 0 0 4.112-2.468 5.76-.822 0 0 8.638 3.701 8.638-2.879 0 0 .407-4.934 2.468-5.347 0 0 3.946-14.811 10.938-31.674l3.075 4.113 2.468-1.648s-.288 2.468 6.292 2.468c8.218-44.992 27.716-97.832 44.839-127.31l67.315-47.693c.738-3.856-24.295 138.664-9.46 158.548 0 0 2.055 4.525 11.521 7.818 0 0 6.583 2.471 8.227 4.113 0 0 6.989 2.466 5.348-6.996 0 0 8.638 1.651 0-7.813 0 0-1.238-2.887 2.876-2.06 0 0 20.403 6.587 14.645-5.345 0 0-5.764-2.881-6.171-18.924 0 0-5.203-29.077 21.971-165.541l58.415-43.437 2.056-4.525-3.288 1.234.409-3.29-2.056-.412 2.879-3.703s-19.214 9.585-6.872.946c0 0 22.093-11.395 24.973-14.688 0 0 2.468-4.525 4.524-4.525 0 0 3.287-2.057 1.647-6.994 0 0 27.15-19.456-5.35-5.057zm-117.121 73.85s-39.417 29.209-51.347 38.259c0 0 38.258-83.389 70.465-118.766l-19.118 80.507z"/><path class="apluslogo-st1" d="M313.383 89.974l-4.395 56.075s-1.024 11.496 3.311 21.677c0 0 1.896 5.683.06 10.707 0 0-4.269 5.954 3.954 5.589 0 0 4.11-.182 4.219 2.282 0 0-.924 7.042 5.632 6.34 0 0-.688-6.146 1.37-6.237 0 0-.965-3.252.195-4.952 0 0 3.625-1.805 4.631-16.264l5.927-1.851s3.981-69.602 5.818-91.72c12.574-7.595 67.92-43.671 70.548-45.354 8.43-5.401 16.597-11.02 20.022-12.827s-3.43-2.976-3.43-2.976-3.96 3.471-9.378 2.065c0 0-2.545-1.655-3.74-.781 0 0-1.55 2.248-2.835 1.072 0 0-9.112.526-15.149 3.673 0 0-27.237 11.12-55.634 25.939 0 0 3.021-38.504.7-35.107 0 0-4.772-.036-6.452-.785l.377-3.481s-.813-6.139-4.697-1.025c0 0-17.481 10.534-17.112 28.225l-2.33 24.521-67.518 38.543s-2.74 12.504 1.625 18.075c0 0 .592 4.093 10.794 1.993 0 0-3.409 4.189 11.854 2.113l41.633-25.529z"/></svg>