<?xml version="1.0" encoding="UTF-8"?><svg id="Layer_2" xmlns="http://www.w3.org/2000/svg" viewBox="0 0 1538.27 1538.27"><defs><style>.cls-1{fill:#efebbb;}</style></defs><g id="Layer_4"><path class="cls-1" d="M561.13,775.13l-4.5-6,4.5-6c17-22.67,37.44-42.12,60.77-57.83,6.29-4.23,12.82-8.22,19.55-11.93l-159.36,17.71-411.49,45.72-10.04,1.12-56.1,6.23c-5.93.66-5.93,9.28,0,9.94l56.1,6.23,10.04,1.12,571.49,63.5c-6.76-3.88-13.41-8.07-19.91-12.56-34.9-24.14-55.54-49.94-61.03-57.27Z"/><path class="cls-1" d="M705.59,668.03c5.08-1.33,10.26-2.52,15.42-3.56.22-.05.45-.09.67-.13,17.51-3.5,31.75-4.67,40.65-5.05.58-.03,1.15-.06,1.73-.07.86-.04,1.72-.06,2.58-.06.5-.02.99-.02,1.49-.02h1c1.01,0,2.03.01,3.03.04,17.52.21,34.89,2.2,51.6,5.91h.04l1.1.25c1.25.28,2.48.57,3.63.86,6.6,1.59,13.22,3.48,19.74,5.64l-21.09-189.75-45.72-411.49-1.12-10.04-6.23-56.1c-.66-5.93-9.28-5.93-9.94,0l-6.23,56.11-1.12,10.04-66.89,601.97c4.7-1.51,9.53-2.92,14.4-4.21l1.27-.33Z"/><path class="cls-1" d="M1477.72,757.93l-10.04-1.12-571.49-63.5c6.76,3.87,13.41,8.07,19.91,12.56,34.9,24.14,55.54,49.94,61.03,57.27l4.5,6-4.5,6c-17,22.66-37.44,42.12-60.76,57.83-6.29,4.23-12.82,8.22-19.55,11.93l159.36-17.71,411.49-45.72,10.04-1.12,56.1-6.23c5.93-.66,5.93-9.28,0-9.94l-56.11-6.23Z"/><path class="cls-1" d="M832.85,870.36l-7.79,1.77c-2.84.64-5.41,1.2-7.85,1.69l-.46.09c-23.58,4.72-41.16,5.22-47.62,5.22-1.01,0-2.03-.01-3.03-.04-17.52-.21-34.89-2.2-51.6-5.91h-.05l-1.3-.3h-2.92s-.93-.92-.93-.92c-6.46-1.57-12.93-3.42-19.29-5.53l21.09,189.75,45.72,411.49,1.12,10.04,6.23,56.1c.66,5.93,9.28,5.93,9.94,0l6.23-56.11,1.12-10.04,66.89-601.98c-5.1,1.64-10.28,3.14-15.49,4.5v.16Z"/><path class="cls-1" d="M259.21,832.6l-172.77-19.2c-3.1-.34-5.77,2.2-5.54,5.31,11.57,162.69,80.17,315.36,194.53,432.45,2.14,2.19,5.73,1.94,7.57-.51l103.63-138.18c1.42-1.9,1.31-4.53-.26-6.31-67.23-76.2-109.46-168.82-122.75-269.24-.3-2.28-2.11-4.07-4.4-4.33Z"/><path class="cls-1" d="M425.79,1151.65l-138.18,103.63c-2.45,1.84-2.7,5.43-.51,7.57,117.09,114.36,269.76,182.96,432.45,194.53,3.11.22,5.65-2.45,5.31-5.54l-19.19-172.77c-.25-2.29-2.04-4.1-4.33-4.4-100.42-13.29-193.04-55.52-269.23-122.75-1.78-1.57-4.41-1.69-6.31-.26Z"/><path class="cls-1" d="M386.62,425.79l-103.63-138.18c-1.84-2.45-5.43-2.7-7.57-.51-114.36,117.09-182.96,269.76-194.53,432.45-.22,3.11,2.45,5.65,5.54,5.31l172.77-19.19c2.29-.25,4.1-2.04,4.4-4.33,13.29-100.42,55.52-193.04,122.75-269.24,1.57-1.78,1.69-4.41.26-6.31Z"/><path class="cls-1" d="M432.11,386.36c76.2-67.23,168.82-109.46,269.24-122.75,2.28-.3,4.07-2.11,4.33-4.4l19.19-172.77c.34-3.1-2.2-5.77-5.31-5.54-162.69,11.57-315.36,80.17-432.45,194.53-2.19,2.14-1.94,5.73.51,7.57l138.18,103.63c1.9,1.42,4.53,1.31,6.31-.26Z"/><path class="cls-1" d="M1112.48,386.62l138.18-103.63c2.45-1.84,2.7-5.43.51-7.57-117.09-114.36-269.76-182.96-432.45-194.53-3.11-.22-5.65,2.45-5.31,5.54l19.2,172.77c.25,2.29,2.04,4.1,4.33,4.4,100.42,13.29,193.04,55.52,269.24,122.75,1.78,1.57,4.41,1.69,6.31.26Z"/><path class="cls-1" d="M1279.06,705.67l172.77,19.19c3.1.34,5.77-2.2,5.54-5.31-11.57-162.69-80.17-315.36-194.53-432.45-2.14-2.19-5.73-1.94-7.57.51l-103.63,138.18c-1.42,1.9-1.31,4.53.26,6.31,67.23,76.2,109.46,168.82,122.75,269.23.3,2.28,2.11,4.07,4.4,4.33Z"/><path class="cls-1" d="M1151.65,1112.48l103.63,138.18c1.84,2.45,5.43,2.7,7.57.51,114.36-117.09,182.96-269.76,194.53-432.45.22-3.11-2.45-5.65-5.54-5.31l-172.77,19.2c-2.29.25-4.1,2.04-4.4,4.33-13.29,100.42-55.52,193.04-122.75,269.24-1.57,1.78-1.69,4.41-.26,6.31Z"/><path class="cls-1" d="M832.6,1279.06l-19.2,172.77c-.34,3.1,2.2,5.77,5.31,5.54,162.69-11.57,315.36-80.17,432.45-194.53,2.19-2.14,1.94-5.73-.51-7.57l-138.18-103.63c-1.9-1.42-4.53-1.31-6.31.26-76.2,67.23-168.82,109.46-269.24,122.75-2.28.3-4.07,2.11-4.33,4.4Z"/><path class="cls-1" d="M574.83,1002.37l90.11-67.58c1.42-1.06,2.17-2.79,1.97-4.55l-5.45-49.02c-.26-2.32-2.09-4.16-4.42-4.42l-49.01-5.44c-1.76-.2-3.49.55-4.55,1.97l-163.35,217.81c-3.47,4.63,2.37,10.47,7,7l127.69-95.77Z"/><path class="cls-1" d="M505.44,678.31l56.44-6.27c3.85-.43,5.77-4.87,3.45-7.97l-32.61-43.48c-2.12-2.83-6.44-2.63-8.28.39-9.77,16.09-17.89,33.04-24.27,50.68-1.26,3.47,1.59,7.06,5.27,6.65Z"/><path class="cls-1" d="M620.58,532.72l43.48,32.62c3.1,2.32,7.54.4,7.97-3.45l6.27-56.45c.41-3.67-3.18-6.52-6.65-5.27-17.64,6.38-34.59,14.5-50.68,24.27-3.02,1.83-3.22,6.15-.39,8.28Z"/><path class="cls-1" d="M917.29,524.45c-16.1-9.77-33.04-17.89-50.68-24.27-3.47-1.26-7.06,1.59-6.65,5.27l6.27,56.45c.43,3.85,4.87,5.77,7.97,3.45l43.48-32.62c2.83-2.12,2.63-6.44-.39-8.28Z"/><path class="cls-1" d="M963.44,535.91l-90.12,67.58c-1.42,1.06-2.17,2.79-1.97,4.55l5.45,49.02c.26,2.32,2.09,4.16,4.42,4.42l49.01,5.44c1.76.2,3.49-.55,4.55-1.97l163.35-217.81c3.47-4.63-2.37-10.47-7-7l-127.69,95.77Z"/><path class="cls-1" d="M1005.55,620.58l-32.62,43.48c-2.32,3.1-.4,7.54,3.45,7.97l56.45,6.27c3.67.41,6.52-3.18,5.27-6.65-6.38-17.64-14.5-34.59-24.27-50.68-1.83-3.02-6.15-3.22-8.28-.39Z"/><path class="cls-1" d="M1013.83,917.3c9.77-16.1,17.89-33.04,24.27-50.68,1.26-3.47-1.59-7.06-5.27-6.65l-56.45,6.27c-3.85.43-5.77,4.87-3.45,7.97l32.62,43.48c2.12,2.83,6.44,2.63,8.28-.39Z"/><path class="cls-1" d="M917.69,1005.55l-43.48-32.62c-3.1-2.32-7.54-.4-7.97,3.45l-6.27,56.45c-.41,3.67,3.18,6.52,6.65,5.27,17.64-6.38,34.59-14.5,50.68-24.27,3.02-1.83,3.22-6.15.39-8.28Z"/><path class="cls-1" d="M620.97,1013.83c16.1,9.77,33.04,17.89,50.68,24.27,3.47,1.26,7.06-1.59,6.65-5.27l-6.27-56.45c-.43-3.85-4.87-5.77-7.97-3.45l-43.48,32.62c-2.83,2.12-2.63,6.44.39,8.28Z"/><path class="cls-1" d="M532.72,917.69l32.62-43.48c2.32-3.1.4-7.54-3.45-7.97l-56.45-6.27c-3.67-.41-6.52,3.18-5.27,6.65,6.38,17.64,14.5,34.59,24.27,50.68,1.83,3.02,6.15,3.22,8.28.39Z"/><path class="cls-1" d="M1002.36,963.44l-67.58-90.12c-1.06-1.42-2.79-2.17-4.55-1.97l-49.01,5.45c-2.32.26-4.16,2.09-4.42,4.42l-5.45,49.01c-.2,1.76.55,3.49,1.97,4.55l217.81,163.35c4.63,3.47,10.47-2.37,7-7l-95.77-127.69Z"/><path class="cls-1" d="M535.91,574.83l67.58,90.11c1.06,1.42,2.79,2.17,4.55,1.97l49.01-5.45c2.32-.26,4.16-2.09,4.42-4.42l5.45-49.01c.2-1.76-.55-3.49-1.97-4.55l-217.81-163.35c-4.63-3.47-10.47,2.37-7,7l95.77,127.69Z"/><path class="cls-1" d="M769.13,858.14c-15.93,0-31.54-4.25-45.14-12.29l-.89-.52c-26.53-16.07-42.97-45.17-42.97-76.19,0-28.85,14.08-56.02,37.65-72.7.99-.7,1.76-1.23,2.46-1.68l.13-.08c3-1.98,6.13-3.78,9.31-5.33l1.53-.75c10.42-4.92,21.56-7.72,33.15-8.33.44-.03.83-.04,1.22-.05h.3c.66-.04,1.31-.06,1.97-.06h.46c.18-.02.35-.02.52-.02.1,0,.19,0,.29,0,16.74,0,33.04,4.67,47.13,13.49l.09.06c.37.23.73.46,1.09.7l2.41,1.88h.37c23.79,16.68,37.9,43.71,37.9,72.87,0,31.22-15.86,59.54-42.47,75.89l-1.71,1.01c-1.3.77-2.64,1.51-3.99,2.21-12.69,6.57-26.42,9.9-40.83,9.9Z"/></g></svg>